<?xml version="1.0" encoding="utf-8"?><!-- Uploaded to: SVG Repo, www.svgrepo.com, Generator: SVG Repo Mixer Tools -->
<svg fill="#000000" width="800px" height="800px" viewBox="0 0 24 24" id="left-sign" data-name="Flat Color" xmlns="http://www.w3.org/2000/svg" class="icon flat-color"><path id="primary" d="M9.13,21.49l-5-9a1,1,0,0,1,0-1l5-9A1,1,0,0,1,10,2h9a1,1,0,0,1,.86.49,1,1,0,0,1,0,1L15.14,12l4.73,8.51A1,1,0,0,1,20,21a1,1,0,0,1-.14.51A1,1,0,0,1,19,22H10A1,1,0,0,1,9.13,21.49Z" style="fill: rgb(0, 0, 0);"></path></svg>