<?xml version="1.0" encoding="utf-8"?><!-- Uploaded to: SVG Repo, www.svgrepo.com, Generator: SVG Repo Mixer Tools -->
<svg fill="#000000" width="800px" height="800px" viewBox="0 0 24 24" id="right-sign" data-name="Flat Color" xmlns="http://www.w3.org/2000/svg" class="icon flat-color"><path id="primary" d="M14.87,21.49l5-9a1,1,0,0,0,0-1l-5-9A1,1,0,0,0,14,2H5a1,1,0,0,0-.86.49,1,1,0,0,0,0,1L8.86,12,4.13,20.51A1,1,0,0,0,4,21a1,1,0,0,0,.14.51A1,1,0,0,0,5,22h9A1,1,0,0,0,14.87,21.49Z" style="fill: rgb(0, 0, 0);"></path></svg>