<?xml version="1.0" encoding="UTF-8" standalone="no"?>
<!-- Created with Inkscape (http://www.inkscape.org/) -->

<svg
   width="20"
   height="20"
   viewBox="0 0 20 20"
   version="1.1"
   id="svg1"
   sodipodi:docname="floating.svg"
   inkscape:version="1.3.2 (091e20ef0f, 2023-11-25)"
   xmlns:inkscape="http://www.inkscape.org/namespaces/inkscape"
   xmlns:sodipodi="http://sodipodi.sourceforge.net/DTD/sodipodi-0.dtd"
   xmlns="http://www.w3.org/2000/svg"
   xmlns:svg="http://www.w3.org/2000/svg">
  <sodipodi:namedview
     id="namedview1"
     pagecolor="#505050"
     bordercolor="#ffffff"
     borderopacity="1"
     inkscape:showpageshadow="0"
     inkscape:pageopacity="0"
     inkscape:pagecheckerboard="1"
     inkscape:deskcolor="#505050"
     inkscape:document-units="px"
     inkscape:zoom="15.01136"
     inkscape:cx="2.9977298"
     inkscape:cy="11.957611"
     inkscape:window-width="1920"
     inkscape:window-height="1032"
     inkscape:window-x="0"
     inkscape:window-y="48"
     inkscape:window-maximized="1"
     inkscape:current-layer="layer1" />
  <defs
     id="defs1" />
  <g
     inkscape:label="Слой 1"
     inkscape:groupmode="layer"
     id="layer1">
    <path
       id="rect1"
       style="fill:#000000;fill-opacity:1;stroke-width:1.01151"
       inkscape:label="rect1"
       d="M 0.052734375 0 C 0.02351992 0 2.6111578e-18 0.02351992 0 0.052734375 L 0 19.947266 C 0 19.97648 0.02351992 20 0.052734375 20 L 19.947266 20 C 19.97648 20 20 19.97648 20 19.947266 L 20 0.052734375 C 20 0.02351992 19.97648 2.6111578e-18 19.947266 0 L 0.052734375 0 z M 4.3789062 3 L 11.414062 3 L 11.414062 4.3789062 L 4.3789062 4.3789062 L 4.3789062 11.414062 L 3 11.414062 L 3 4.3789062 C 3 4.0087148 3.1350667 3.689152 3.4042969 3.4199219 C 3.6847449 3.1394738 4.0087148 3 4.3789062 3 z M 7.2070312 5.7929688 L 14.207031 5.7929688 L 14.207031 7.2070312 L 7.2070312 7.2070312 L 7.2070312 14.207031 L 5.7929688 14.207031 L 5.7929688 7.2070312 C 5.7929688 6.814404 5.9280355 6.4840739 6.1972656 6.2148438 C 6.4777137 5.9343957 6.814404 5.7929688 7.2070312 5.7929688 z M 10 8.5859375 L 15.621094 8.5859375 C 15.991285 8.5859375 16.310848 8.7273644 16.580078 9.0078125 C 16.860526 9.2770426 17 9.6073727 17 10 L 17 15.621094 C 17 15.991285 16.860526 16.310848 16.580078 16.580078 C 16.310848 16.860526 15.991285 17 15.621094 17 L 10 17 C 9.6073727 17 9.2706824 16.860526 8.9902344 16.580078 C 8.7210042 16.310848 8.5859375 15.991285 8.5859375 15.621094 L 8.5859375 10 C 8.5859375 9.6073727 8.7210042 9.2770426 8.9902344 9.0078125 C 9.2706824 8.7273644 9.6073727 8.5859375 10 8.5859375 z M 10 10 L 10 15.621094 L 15.621094 15.621094 L 15.621094 10 L 10 10 z " />
  </g>
</svg>
