<?xml version="1.0" encoding="UTF-8" standalone="no"?>
<!-- Created with Inkscape (http://www.inkscape.org/) -->

<svg
   width="20"
   height="20"
   viewBox="0 0 20 20"
   version="1.1"
   id="svg1"
   sodipodi:docname="floating_off.svg"
   inkscape:version="1.3.2 (091e20ef0f, 2023-11-25)"
   xmlns:inkscape="http://www.inkscape.org/namespaces/inkscape"
   xmlns:sodipodi="http://sodipodi.sourceforge.net/DTD/sodipodi-0.dtd"
   xmlns="http://www.w3.org/2000/svg"
   xmlns:svg="http://www.w3.org/2000/svg">
  <sodipodi:namedview
     id="namedview1"
     pagecolor="#505050"
     bordercolor="#ffffff"
     borderopacity="1"
     inkscape:showpageshadow="0"
     inkscape:pageopacity="0"
     inkscape:pagecheckerboard="1"
     inkscape:deskcolor="#505050"
     inkscape:document-units="px"
     inkscape:zoom="15.01136"
     inkscape:cx="2.9977298"
     inkscape:cy="11.957611"
     inkscape:window-width="1920"
     inkscape:window-height="1032"
     inkscape:window-x="0"
     inkscape:window-y="48"
     inkscape:window-maximized="1"
     inkscape:current-layer="layer1" />
  <defs
     id="defs1" />
  <g
     inkscape:label="Слой 1"
     inkscape:groupmode="layer"
     id="layer1">
    <path
       id="rect1"
       style="fill:#000000;fill-opacity:1;stroke-width:1.01151"
       inkscape:label="rect1"
       d="M 0.052734375 0 C 0.02351992 0 2.6111578e-18 0.02351992 0 0.052734375 L 0 19.947266 C 0 19.97648 0.02351992 20 0.052734375 20 L 19.947266 20 C 19.97648 20 20 19.97648 20 19.947266 L 20 0.052734375 C 20 0.02351992 19.97648 2.6111578e-18 19.947266 0 L 0.052734375 0 z M 10 4 C 10.757988 4 11.479133 4.1361845 12.164062 4.4101562 C 12.858124 4.684128 13.465782 5.0557324 13.986328 5.5214844 C 14.516007 5.9872363 14.95375 6.5430065 15.300781 7.1914062 C 15.647812 7.839806 15.86766 8.5291744 15.958984 9.2597656 L 15.958984 9.3417969 C 15.958984 9.5244447 15.895432 9.6807403 15.767578 9.8085938 C 15.639725 9.9364472 15.487969 10 15.314453 10 C 15.15007 10 15.004807 9.9455262 14.876953 9.8359375 C 14.758232 9.7263488 14.69014 9.5882112 14.671875 9.4238281 C 14.598816 8.8576199 14.424362 8.3200076 14.150391 7.8085938 C 13.885551 7.2971799 13.547676 6.8529436 13.136719 6.4785156 C 12.725761 6.1040876 12.247162 5.8135606 11.699219 5.6035156 C 11.151275 5.3934706 10.584473 5.2871094 10 5.2871094 C 9.3059383 5.2871094 8.6528858 5.4297865 8.0410156 5.7128906 C 7.4291454 5.9959947 6.9031985 6.383804 6.4648438 6.8769531 L 7.4921875 7.9179688 C 7.5378495 7.9544983 7.5625 8.0044326 7.5625 8.0683594 C 7.5625 8.1322861 7.5378495 8.1822204 7.4921875 8.21875 C 7.4465255 8.2552796 7.3965912 8.2734375 7.3417969 8.2734375 L 6.5625 8.2734375 L 5 8.2734375 L 4.21875 8.2734375 C 4.1639557 8.2734375 4.1140213 8.2552796 4.0683594 8.21875 C 4.0226974 8.1822204 4 8.1368256 4 8.0820312 L 4 4.9589844 C 4 4.90419 4.0226974 4.8542557 4.0683594 4.8085938 C 4.1140213 4.7629318 4.1639557 4.7402344 4.21875 4.7402344 C 4.2735443 4.7402344 4.3234787 4.7583923 4.3691406 4.7949219 L 4.6582031 5.0957031 C 4.8591157 5.2966157 5.058853 5.4892272 5.2597656 5.671875 L 5.5488281 5.9726562 C 6.1150364 5.3699185 6.7817073 4.8913195 7.5488281 4.5351562 C 8.3159489 4.178993 9.1324229 4 10 4 z M 4.6035156 10 L 4.6855469 10 C 4.8499299 10 4.9906539 10.054474 5.109375 10.164062 C 5.2372285 10.273651 5.3098602 10.411789 5.328125 10.576172 C 5.4011841 11.14238 5.5710982 11.679992 5.8359375 12.191406 C 6.1099092 12.70282 6.4523237 13.140564 6.8632812 13.505859 C 7.2742388 13.871155 7.7482983 14.159096 8.2871094 14.369141 C 8.8350528 14.579186 9.4063946 14.685547 10 14.685547 C 10.694062 14.685547 11.347114 14.547409 11.958984 14.273438 C 12.570855 13.999466 13.096801 13.607117 13.535156 13.095703 L 12.505859 12.082031 C 12.460197 12.027237 12.4375 11.972763 12.4375 11.917969 C 12.4375 11.863174 12.460197 11.81324 12.505859 11.767578 C 12.551521 11.721916 12.603409 11.699219 12.658203 11.699219 L 13.4375 11.699219 L 15 11.699219 L 15.78125 11.699219 C 15.836044 11.699219 15.885979 11.721916 15.931641 11.767578 C 15.977303 11.81324 16 11.863174 16 11.917969 L 16 15.041016 C 16 15.09581 15.977303 15.145744 15.931641 15.191406 C 15.885979 15.237068 15.836044 15.259766 15.78125 15.259766 C 15.726456 15.259766 15.676521 15.241608 15.630859 15.205078 L 15.328125 14.904297 C 15.136345 14.703384 14.941147 14.501694 14.740234 14.300781 L 14.451172 14.027344 C 13.884964 14.630082 13.218293 15.108681 12.451172 15.464844 C 11.684051 15.821007 10.867577 16 10 16 C 9.2420116 16 8.5163273 15.863815 7.8222656 15.589844 C 7.1373363 15.315872 6.5296787 14.939728 6 14.464844 C 5.4794537 13.989959 5.0462496 13.42965 4.6992188 12.78125 C 4.3521879 12.13285 4.1323395 11.443482 4.0410156 10.712891 L 4.0410156 10.630859 C 4.0410156 10.466476 4.09095 10.323799 4.1914062 10.205078 C 4.3009949 10.086357 4.4391326 10.018265 4.6035156 10 z " />
  </g>
</svg>
