<?xml version="1.0" encoding="UTF-8" standalone="no"?>
<!-- Created with Inkscape (http://www.inkscape.org/) -->

<svg
   width="20"
   height="20"
   viewBox="0 0 20 20"
   version="1.1"
   id="svg1"
   sodipodi:docname="fullscreen_off.svg"
   inkscape:version="1.3.2 (091e20ef0f, 2023-11-25)"
   xmlns:inkscape="http://www.inkscape.org/namespaces/inkscape"
   xmlns:sodipodi="http://sodipodi.sourceforge.net/DTD/sodipodi-0.dtd"
   xmlns="http://www.w3.org/2000/svg"
   xmlns:svg="http://www.w3.org/2000/svg">
  <sodipodi:namedview
     id="namedview1"
     pagecolor="#505050"
     bordercolor="#ffffff"
     borderopacity="1"
     inkscape:showpageshadow="0"
     inkscape:pageopacity="0"
     inkscape:pagecheckerboard="1"
     inkscape:deskcolor="#505050"
     inkscape:document-units="px"
     inkscape:zoom="15.01136"
     inkscape:cx="2.9977298"
     inkscape:cy="11.957611"
     inkscape:window-width="1866"
     inkscape:window-height="1008"
     inkscape:window-x="10"
     inkscape:window-y="58"
     inkscape:window-maximized="0"
     inkscape:current-layer="layer1" />
  <defs
     id="defs1" />
  <g
     inkscape:label="Слой 1"
     inkscape:groupmode="layer"
     id="layer1">
    <path
       id="rect1"
       style="fill:#000000;fill-opacity:1;stroke-width:1.01151"
       d="M 0.052734375 0 C 0.02351992 0 2.6111578e-18 0.02351992 0 0.052734375 L 0 19.947266 C 0 19.97648 0.02351992 20 0.052734375 20 L 19.947266 20 C 19.97648 20 20 19.97648 20 19.947266 L 20 0.052734375 C 20 0.02351992 19.97648 2.6111578e-18 19.947266 0 L 0.052734375 0 z M 6.0078125 3 L 7.9785156 3 L 7.9785156 7.9785156 L 3 7.9785156 L 3 6.0078125 L 6.0078125 6.0078125 L 6.0078125 3 z M 12.021484 3 L 13.992188 3 L 13.992188 6.0078125 L 17 6.0078125 L 17 7.9785156 L 12.021484 7.9785156 L 12.021484 3 z M 3 12.021484 L 7.9785156 12.021484 L 7.9785156 17 L 6.0078125 17 L 6.0078125 13.992188 L 3 13.992188 L 3 12.021484 z M 12.021484 12.021484 L 17 12.021484 L 17 13.992188 L 13.992188 13.992188 L 13.992188 17 L 12.021484 17 L 12.021484 12.021484 z " />
  </g>
</svg>
