<?xml version="1.0" encoding="UTF-8" standalone="no"?>
<!-- Created with Inkscape (http://www.inkscape.org/) -->

<svg
   width="20"
   height="20"
   viewBox="0 0 20 20"
   version="1.1"
   id="svg1"
   sodipodi:docname="ontop.svg"
   inkscape:version="1.3.2 (091e20ef0f, 2023-11-25)"
   xmlns:inkscape="http://www.inkscape.org/namespaces/inkscape"
   xmlns:sodipodi="http://sodipodi.sourceforge.net/DTD/sodipodi-0.dtd"
   xmlns="http://www.w3.org/2000/svg"
   xmlns:svg="http://www.w3.org/2000/svg">
  <sodipodi:namedview
     id="namedview1"
     pagecolor="#505050"
     bordercolor="#ffffff"
     borderopacity="1"
     inkscape:showpageshadow="0"
     inkscape:pageopacity="0"
     inkscape:pagecheckerboard="1"
     inkscape:deskcolor="#505050"
     inkscape:document-units="px"
     inkscape:zoom="15.01136"
     inkscape:cx="2.9977298"
     inkscape:cy="11.957611"
     inkscape:window-width="1920"
     inkscape:window-height="1032"
     inkscape:window-x="0"
     inkscape:window-y="48"
     inkscape:window-maximized="1"
     inkscape:current-layer="layer1" />
  <defs
     id="defs1" />
  <g
     inkscape:label="Слой 1"
     inkscape:groupmode="layer"
     id="layer1">
    <path
       id="rect1"
       style="fill:#000000;fill-opacity:1;stroke-width:1.01151"
       inkscape:label="rect1"
       d="M 0.052734375 0 C 0.02351992 0 2.6111578e-18 0.02351992 0 0.052734375 L 0 19.947266 C 0 19.97648 0.02351992 20 0.052734375 20 L 19.947266 20 C 19.97648 20 20 19.97648 20 19.947266 L 20 0.052734375 C 20 0.02351992 19.97648 2.6111578e-18 19.947266 0 L 0.052734375 0 z M 10 3 L 16 8.734375 L 12.578125 8.734375 L 12.578125 13.677734 L 7.421875 13.677734 L 7.421875 8.734375 L 4 8.734375 L 10 3 z M 10 5.2929688 L 8.1035156 7.1132812 L 9.1542969 7.1132812 L 9.1542969 12.056641 L 10.845703 12.056641 L 10.845703 7.1132812 L 11.896484 7.1132812 L 10 5.2929688 z M 4 15.339844 L 16 15.339844 L 16 17 L 4 17 L 4 15.339844 z " />
  </g>
</svg>
