<?xml version="1.0" encoding="UTF-8" standalone="no"?>
<!-- Created with Inkscape (http://www.inkscape.org/) -->

<svg
   width="20"
   height="20"
   viewBox="0 0 20 20"
   version="1.1"
   id="svg1"
   sodipodi:docname="ontop_off.svg"
   inkscape:version="1.3.2 (091e20ef0f, 2023-11-25)"
   xmlns:inkscape="http://www.inkscape.org/namespaces/inkscape"
   xmlns:sodipodi="http://sodipodi.sourceforge.net/DTD/sodipodi-0.dtd"
   xmlns="http://www.w3.org/2000/svg"
   xmlns:svg="http://www.w3.org/2000/svg">
  <sodipodi:namedview
     id="namedview1"
     pagecolor="#505050"
     bordercolor="#ffffff"
     borderopacity="1"
     inkscape:showpageshadow="0"
     inkscape:pageopacity="0"
     inkscape:pagecheckerboard="1"
     inkscape:deskcolor="#505050"
     inkscape:document-units="px"
     inkscape:zoom="15.01136"
     inkscape:cx="2.9977298"
     inkscape:cy="11.957611"
     inkscape:window-width="1920"
     inkscape:window-height="1032"
     inkscape:window-x="0"
     inkscape:window-y="48"
     inkscape:window-maximized="1"
     inkscape:current-layer="layer1" />
  <defs
     id="defs1" />
  <g
     inkscape:label="Слой 1"
     inkscape:groupmode="layer"
     id="layer1">
    <path
       id="rect1"
       style="fill:#000000;fill-opacity:1;stroke-width:1.01151"
       inkscape:label="rect1"
       d="M 0.052734375 0 C 0.02351992 0 2.6111578e-18 0.02351992 0 0.052734375 L 0 19.947266 C 0 19.97648 0.02351992 20 0.052734375 20 L 19.947266 20 C 19.97648 20 20 19.97648 20 19.947266 L 20 0.052734375 C 20 0.02351992 19.97648 2.6111578e-18 19.947266 0 L 0.052734375 0 z M 6.0996094 3 L 9.234375 5.7929688 L 6.9003906 5.7929688 L 6.9003906 8.5859375 L 5.3339844 8.5859375 L 5.3339844 5.7929688 L 3 5.7929688 L 6.0996094 3 z M 13.097656 3 L 14.666016 3 L 14.666016 5.7929688 L 17 5.7929688 L 13.900391 8.5859375 L 10.765625 5.7929688 L 13.097656 5.7929688 L 13.097656 3 z M 6.0996094 10 L 13.900391 10 C 14.311055 10 14.666178 10.139474 14.964844 10.419922 C 15.275953 10.689152 15.431641 11.021435 15.431641 11.414062 L 15.431641 15.621094 C 15.431641 15.991285 15.275953 16.310848 14.964844 16.580078 C 14.666178 16.860526 14.311055 17 13.900391 17 L 6.0996094 17 C 5.6889446 17 5.3267347 16.860526 5.015625 16.580078 C 4.7169597 16.310848 4.5683594 15.991285 4.5683594 15.621094 L 4.5683594 11.414062 C 4.5683594 11.021435 4.7169597 10.689152 5.015625 10.419922 C 5.3267347 10.139474 5.6889446 10 6.0996094 10 z M 6.0996094 11.414062 L 6.0996094 15.621094 L 13.900391 15.621094 L 13.900391 11.414062 L 6.0996094 11.414062 z " />
  </g>
</svg>
