<?xml version="1.0" encoding="UTF-8" standalone="no"?>
<!-- Created with Inkscape (http://www.inkscape.org/) -->

<svg
   width="20"
   height="20"
   viewBox="0 0 20 20"
   version="1.1"
   id="svg1"
   xmlns="http://www.w3.org/2000/svg"
   xmlns:svg="http://www.w3.org/2000/svg">
  <defs
     id="defs1" />
  <g
     id="layer1">
    <path
       id="rect1"
       style="fill:#000000;fill-opacity:1;stroke-width:1.01151"
       d="M 0.052734375 0 C 0.02351992 0 2.6111578e-18 0.02351992 0 0.052734375 L 0 19.947266 C 0 19.97648 0.02351992 20 0.052734375 20 L 19.947266 20 C 19.97648 20 20 19.97648 20 19.947266 L 20 0.052734375 C 20 0.02351992 19.97648 2.6111578e-18 19.947266 0 L 0.052734375 0 z M 5.8203125 3 L 14.179688 3 L 14.179688 4.3789062 L 13.320312 4.3789062 L 13.320312 10 L 15 11.414062 L 15 12.792969 L 13.740234 12.792969 L 17.027344 15.525391 L 15.609375 16.703125 L 10.90625 12.792969 L 10.660156 12.792969 L 10.660156 17 L 9.3398438 17 L 9.3398438 12.792969 L 5 12.792969 L 5 11.414062 L 6.6796875 10 L 6.6796875 9.2792969 L 2.0996094 5.4726562 L 3.5175781 4.2929688 L 6.6796875 6.921875 L 6.6796875 4.3789062 L 5.8203125 4.3789062 L 5.8203125 3 z M 8.3203125 4.3789062 L 8.3203125 8.2851562 L 12.082031 11.414062 L 12.660156 11.414062 L 11.679688 10.554688 L 11.679688 4.3789062 L 8.3203125 4.3789062 z M 8.2675781 10.599609 L 7.3398438 11.414062 L 9.2460938 11.414062 L 8.2675781 10.599609 z " />
  </g>
</svg>
