<?xml version="1.0" encoding="utf-8"?><!-- Uploaded to: SVG Repo, www.svgrepo.com, Generator: SVG Repo Mixer Tools -->
<svg width="800px" height="800px" viewBox="0 0 24 24" fill="none" xmlns="http://www.w3.org/2000/svg">
<path d="M10 6V4M10 20V18M14 6V4M14 20V18M18.2222 10H20M4 10H5.77778M18.2222 14H20M4 14H5.77778M10 10H14V14H10V10ZM7.99998 18H16C17.1046 18 18 17.1046 18 16V8C18 6.89543 17.1046 6 16 6H7.99998C6.89542 6 5.99998 6.89543 5.99998 8V16C5.99998 17.1046 6.89542 18 7.99998 18Z" stroke="#000000" stroke-width="2" stroke-linecap="round" stroke-linejoin="round"/>
</svg>